:FULLY-SPECIFIED
:FORCE-ALL-JOINTS-BE-3DOF
:DEGREES
170
root 6.3311 16.2281 -25.6319 2.98196 24.4411 0.368796
lfemur -19.4246 17.9977 -5.32687
ltibia 35.9328 -0 0
lfoot -6.69543 -9.98748 0.0032737
ltoes 25.9478 -0 0
rfemur -28.0449 -13.0594 -1.26207
rtibia 64.9 -0 0
rfoot -0.131179 -16.0184 2.49162
rtoes 23.293 -0 0
lowerback 1.58872 -4.06225 -1.75358
upperback 0.666187 -5.37215 -3.21952
thorax -0.137563 -2.71307 -2.08662
lowerneck -10.8016 -6.16987 0.213405
upperneck 2.03412 -8.53646 5.38881
head 2.74551 -4.04235 1.21058
lclavicle 3.06928e-14 3.07976e-14 2.13819e-30
lhumerus -48.3609 -41.2402 110.222
lradius 51.3051 -0 0
lwrist 14.866 0 0
lhand 36.1399 25.9612 0.108488
lfingers 7.12502 -0 0
lthumb 59.0959 40.4306 0.0441801
rclavicle 3.06928e-14 3.07976e-14 2.13819e-30
rhumerus -56.9238 1.44019 -91.9335
rradius 102.53 -0 0
rwrist -1.51591 0 0
rhand 10.3492 -8.76373 0.375696
rfingers 7.12502 -0 0
rthumb 35.3772 -34.6062 0.580143
171
root 6.27509 16.2182 -25.6042 3.27917 24.1437 0.506073
lfemur -19.4296 17.1987 -4.60234
ltibia 35.8815 -0 0
lfoot -6.72201 -11.8114 0.0281873
ltoes 25.1915 -0 0
rfemur -26.0371 -11.9158 -1.99842
rtibia 61.6935 -0 0
rfoot -1.97142 -17.3175 2.31578
rtoes 25.4601 -0 0
lowerback 1.12462 -3.82024 -1.57318
upperback 0.573214 -5.03938 -3.46606
thorax -0.0199628 -2.54428 -2.48533
lowerneck -10.7938 -6.30036 0.37143
upperneck 2.07001 -8.73433 5.41266
head 2.75526 -4.13726 1.17876
lclavicle 3.82716e-14 3.08631e-14 2.69414e-30
lhumerus -48.9848 -41.4388 110.808
lradius 51.4751 -0 0
lwrist 15.1484 0 0
lhand 36.4451 26.4312 0.100261
lfingers 7.12502 -0 0
lthumb 59.3608 40.654 0.040823
rclavicle 3.82716e-14 3.08631e-14 2.69414e-30
rhumerus -57.0851 3.06191 -92.9691
rradius 102.726 -0 0
rwrist -1.19147 0 0
rhand 9.24331 -9.34304 0.350539
rfingers 7.12502 -0 0
rthumb 34.3335 -35.4845 0.539766
172
root 6.21943 16.207 -25.5775 3.56986 23.8187 0.64572
lfemur -19.3988 16.4082 -3.89753
ltibia 35.7856 -0 0
lfoot -6.7939 -13.5583 0.0512585
ltoes 24.5027 -0 0
rfemur -24.1483 -10.8114 -2.67276
rtibia 58.6116 -0 0
rfoot -3.76509 -18.4984 2.09372
rtoes 27.5836 -0 0
lowerback 0.67423 -3.58458 -1.40074
upperback 0.481679 -4.71744 -3.70885
thorax 0.0936082 -2.38014 -2.87472
lowerneck -10.7892 -6.41441 0.532262
upperneck 2.10691 -8.91043 5.43085
head 2.76553 -4.22145 1.14598
lclavicle 4.54186e-14 3.07934e-14 3.13935e-30
lhumerus -49.5986 -41.6315 111.376
lradius 51.6416 -0 0
lwrist 15.4392 0 0
lhand 36.741 26.8893 0.0901387
lfingers 7.12502 -0 0
lthumb 59.6176 40.8727 0.0366943
rclavicle 4.54186e-14 3.07934e-14 3.13935e-30
rhumerus -57.2013 4.68046 -93.8449
rradius 102.848 -0 0
rwrist -0.922873 0 0
rhand 8.17054 -9.94104 0.318095
rfingers 7.12502 -0 0
rthumb 33.3214 -36.3722 0.487887
173
root 6.16442 16.1943 -25.552 3.85201 23.4643 0.787402
lfemur -19.3259 15.63 -3.21824
ltibia 35.6398 -0 0
lfoot -6.91612 -15.2105 0.070344
ltoes 23.894 -0 0
rfemur -22.3943 -9.76293 -3.28711
rtibia 55.6835 -0 0
rfoot -5.49854 -19.5413 1.833
rtoes 29.6494 -0 0
lowerback 0.24099 -3.35753 -1.23751
upperback 0.392405 -4.40914 -3.9462
thorax 0.202411 -2.22221 -3.25201
lowerneck -10.7881 -6.50945 0.695544
upperneck 2.14488 -9.06126 5.4426
head 2.77634 -4.29319 1.11228
lclavicle 5.20276e-14 3.05755e-14 3.43041e-30
lhumerus -50.1977 -41.818 111.923
lradius 51.8036 -0 0
lwrist 15.7383 0 0
lhand 37.0254 27.3322 0.0784437
lfingers 7.12502 -0 0
lthumb 59.8644 41.085 0.0319254
rclavicle 5.20276e-14 3.05755e-14 3.43041e-30
rhumerus -57.2549 6.29038 -94.5335
rradius 102.887 -0 0
rwrist -0.719075 0 0
rhand 7.14222 -10.5571 0.279236
rfingers 7.12502 -0 0
rthumb 32.3518 -37.2651 0.426175
174
root 6.11033 16.18 -25.5278 4.12354 23.0789 0.930783
lfemur -19.2046 14.8681 -2.57031
ltibia 35.4388 -0 0
lfoot -7.0936 -16.7502 0.0833117
ltoes 23.3777 -0 0
rfemur -20.7906 -8.78735 -3.84458
rtibia 52.9384 -0 0
rfoot -7.15877 -20.4266 1.54247
rtoes 31.6437 -0 0
lowerback -0.17177 -3.14136 -1.08468
upperback 0.306251 -4.11727 -4.17646
thorax 0.305741 -2.07201 -3.61441
lowerneck -10.7908 -6.58288 0.860913
upperneck 2.18399 -9.18332 5.44715
head 2.7877 -4.35078 1.07769
lclavicle 5.79927e-14 3.01969e-14 3.52555e-30
lhumerus -50.7772 -41.9979 112.442
lradius 51.9601 -0 0
lwrist 16.0455 0 0
lhand 37.2959 27.7565 0.0655618
lfingers 7.12502 -0 0
lthumb 60.0991 41.2895 0.0266733
rclavicle 5.79927e-14 3.01969e-14 3.52555e-30
rhumerus -57.2266 7.886 -95.0059
rradius 102.833 -0 0
rwrist -0.589032 0 0
rhand 6.16965 -11.1905 0.235137
rfingers 7.12502 -0 0
rthumb 31.4352 -38.1597 0.356772
175
root 6.05746 16.1641 -25.5052 4.38252 22.6607 1.07561
lfemur -19.0284 14.1265 -1.95969
ltibia 35.1772 -0 0
lfoot -7.3312 -18.1598 0.0881693
ltoes 22.9662 -0 0
rfemur -19.353 -7.90156 -4.34907
rtibia 50.4055 -0 0
rfoot -8.73332 -21.1357 1.23193
rtoes 33.5523 -0 0
lowerback -0.560754 -2.93837 -0.943375
upperback 0.22411 -3.8446 -4.39793
thorax 0.402918 -1.93111 -3.95915
lowerneck -10.7974 -6.63212 1.028
upperneck 2.22427 -9.27308 5.44375
head 2.79964 -4.39249 1.04224
lclavicle 6.32077e-14 2.96447e-14 3.38675e-30
lhumerus -51.3325 -42.1711 112.927
lradius 52.1099 -0 0
lwrist 16.3607 0 0
lhand 37.5503 28.1588 0.0519299
lfingers 7.12502 -0 0
lthumb 60.3199 41.4845 0.0211162
rclavicle 6.32077e-14 2.96447e-14 3.38675e-30
rhumerus -57.095 9.46094 -95.232
rradius 102.675 -0 0
rwrist -0.5417 0 0
rhand 5.26409 -11.8407 0.187291
rfingers 7.12502 -0 0
rthumb 30.5824 -39.0522 0.282279
176
root 6.00609 16.1463 -25.4845 4.6269 22.208 1.22162
lfemur -18.7905 13.4091 -1.39236
ltibia 34.8498 -0 0
lfoot -7.63376 -19.4216 0.0832082
ltoes 22.6722 -0 0
rfemur -18.0972 -7.12234 -4.80493
rtibia 48.1141 -0 0
rfoot -10.2103 -21.6505 0.91182
rtoes 35.3613 -0 0
lowerback -0.922534 -2.75092 -0.814735
upperback 0.146904 -3.59391 -4.6089
thorax 0.493291 -1.80108 -4.28348
lowerneck -10.8083 -6.6546 1.19644
upperneck 2.26576 -9.32703 5.43165
head 2.81216 -4.41662 1.00596
lclavicle 6.75665e-14 2.89061e-14 2.98209e-30
lhumerus -51.8584 -42.3374 113.374
lradius 52.2519 -0 0
lwrist 16.6836 0 0
lhand 37.7864 28.5358 0.0380286
lfingers 7.12502 -0 0
lthumb 60.5248 41.6686 0.0154522
rclavicle 6.75665e-14 2.89061e-14 2.98209e-30
rhumerus -56.8374 11.0075 -95.1798
rradius 102.405 -0 0
rwrist -0.586039 0 0
rhand 4.4368 -12.5074 0.137517
rfingers 7.12502 -0 0
rthumb 29.8038 -39.9389 0.205732
177
root 5.95652 16.1266 -25.4659 4.85468 21.7191 1.3686
lfemur -18.4839 12.7199 -0.874338
ltibia 34.4511 -0 0
lfoot -8.00611 -20.5177 0.0671613
ltoes 22.508 -0 0
rfemur -17.0391 -6.46633 -5.21659
rtibia 46.0933 -0 0
rfoot -11.578 -21.9531 0.592837
rtoes 37.0566 -0 0
lowerback -1.25385 -2.58133 -0.699814
upperback 0.0755801 -3.36796 -4.80767
thorax 0.576224 -1.68352 -4.58464
lowerneck -10.8237 -6.64773 1.36583
upperneck 2.3085 -9.34166 5.41012
head 2.82527 -4.42145 0.968885
lclavicle 7.0963e-14 2.79683e-14 2.28824e-30
lhumerus -52.3502 -42.4968 113.777
lradius 52.3852 -0 0
lwrist 17.0141 0 0
lhand 38.0018 28.884 0.0243783
lfingers 7.12502 -0 0
lthumb 60.7117 41.8401 0.00989443
rclavicle 7.0963e-14 2.79683e-14 2.28824e-30
rhumerus -56.4292 12.516 -94.8159
rradius 102.012 -0 0
rwrist -0.731006 0 0
rhand 3.69897 -13.1899 0.0879758
rfingers 7.12502 -0 0
rthumb 29.1099 -40.8164 0.130571
178
root 5.90902 16.1048 -25.4495 5.06386 21.1923 1.51639
lfemur -18.1015 12.063 -0.41167
ltibia 33.9759 -0 0
lfoot -8.45312 -21.4302 0.0393755
ltoes 22.4861 -0 0
rfemur -16.1951 -5.94997 -5.58813
rtibia 44.3723 -0 0
rfoot -12.8252 -22.0266 0.285553
rtoes 38.6244 -0 0
lowerback -1.55138 -2.43196 -0.599664
upperback 0.011102 -3.1695 -4.99251
thorax 0.651097 -1.58002 -4.85985
lowerneck -10.8437 -6.60891 1.53579
upperneck 2.35247 -9.31346 5.37842
head 2.83899 -4.40526 0.931058
lclavicle 7.32912e-14 2.68187e-14 1.29335e-30
lhumerus -52.8027 -42.6493 114.13
lradius 52.5087 -0 0
lwrist 17.3521 0 0
lhand 38.1944 29.2002 0.0115179
lfingers 7.12502 -0 0
lthumb 60.8788 41.9976 0.00466696
rclavicle 7.32912e-14 2.68187e-14 1.29335e-30
rhumerus -55.8443 13.9736 -94.1057
rradius 101.487 -0 0
rwrist -0.985551 0 0
rhand 3.06176 -13.8881 0.0411792
rfingers 7.12502 -0 0
rthumb 28.511 -41.6812 0.0606123
179
root 5.8639 16.0808 -25.4357 5.25247 20.626 1.66489
lfemur -17.6361 11.4426 -0.0103658
ltibia 33.4187 0 0
lfoot -8.97975 -22.1413 0
ltoes 22.6189 0 0
rfemur -15.5818 -5.58949 -5.9228
rtibia 42.9804 0 0
rfoot -13.9406 -21.8541 0
rtoes 40.0505 0 0
lowerback -1.81182 -2.30514 -0.515334
upperback -0.0455538 -3.00128 -5.16171
thorax 0.717296 -1.49217 -5.10638
lowerneck -10.8685 -6.53556 1.70592
upperneck 2.39766 -9.2389 5.33585
head 2.8533 -4.36633 0.892514
lclavicle 7.44449e-14 2.54444e-14 0
lhumerus -53.211 -42.7952 114.428
lradius 52.6212 0 0
lwrist 17.6973 0 0
lhand 38.362 29.4811 0
lfingers 7.12502 0 0
lthumb 61.024 42.1395 0
rclavicle 7.44449e-14 2.54444e-14 0
rhumerus -55.0558 15.3635 -93.0133
rradius 100.819 0 0
rwrist -1.35861 0 0
rhand 2.53628 -14.6014 0
rfingers 7.12502 0 0
rthumb 28.0174 -402.53 0
180
root 5.81775 16.0524 -25.4236 5.43262 19.9653 1.82736
lfemur -17.0344 10.8116 0.353015
ltibia 32.7211 -0 0
lfoot -9.6404 -22.6836 -0.0539088
ltoes 22.9368 -0 0
rfemur -15.1787 -5.38017 -6.24779
rtibia 41.847 -0 0
rfoot -14.9974 -21.3876 -0.274961
rtoes 41.431 -0 0
lowerback -2.05253 -2.19384 -0.441823
upperback -0.0973549 -2.85355 -5.32758
thorax 0.780117 -1.41503 -5.34129
lowerneck -10.9015 -6.41614 1.89023
upperneck 2.44748 -9.10451 5.27764
head 2.86947 -4.29787 0.850087
lclavicle 7.44011e-14 2.36382e-14 -1.75486e-30
lhumerus -53.6004 -42.9452 114.684
lradius 52.7304 -0 0
lwrist 18.0833 0 0
lhand 38.5129 29.7473 -0.0103805
lfingers 7.12502 -0 0
lthumb 61.1547 42.2796 -0.00415238
rclavicle 7.44011e-14 2.36382e-14 -1.75486e-30
rhumerus -53.9829 16.7866 -91.3955
rradius 99.9364 -0 0
rwrist -1.90165 0 0
rhand 2.12139 -15.3713 -0.0544851
rfingers 7.12502 -0 0
rthumb 27.5702 -43.2688 -0.113916
181
root 5.77092 16.0197 -25.4131 5.60193 19.2137 2.00267
lfemur -16.3006 10.1729 0.673675
ltibia 31.8891 -0 0
lfoot -10.4286 -23.057 -0.120594
ltoes 23.4328 -0 0
rfemur -14.9851 -5.32378 -6.56276
rtibia 40.9753 -0 0
rfoot -15.9888 -20.6332 -0.528488
rtoes 42.7546 -0 0
lowerback -2.27283 -2.09873 -0.379473
upperback -0.143562 -2.72696 -5.48951
thorax 0.839949 -1.34901 -5.56369
lowerneck -10.9429 -6.25147 2.0872
upperneck 2.50101 -8.91123 5.20466
head 2.88732 -4.20037 0.804226
lclavicle 7.32274e-14 2.13632e-14 -3.94564e-30
lhumerus -53.9667 -43.0977 114.893
lradius 52.8352 -0 0
lwrist 18.5103 0 0
lhand 38.6445 29.9993 -0.0192474
lfingers 7.12502 -0 0
lthumb 61.2685 42.4204 -0.00762754
rclavicle 7.32274e-14 2.13632e-14 -3.94564e-30
rhumerus -52.6359 18.216 -89.2613
rradius 98.8497 -0 0
rwrist -2.61163 0 0
rhand 1.83984 -16.1751 -0.135734
rfingers 7.12502 -0 0
rthumb 27.1438 -43.7582 -0.329381
182
root 5.72355 15.9833 -25.4043 5.75995 18.3802 2.18868
lfemur -15.4476 9.52808 0.951589
ltibia 30.9353 -0 0
lfoot -11.3323 -23.2735 -0.197275
ltoes 24.0911 -0 0
rfemur -14.9833 -5.40975 -6.8688
rtibia 40.3465 -0 0
rfoot -16.919 -19.6166 -0.755004
rtoes 44.0228 -0 0
lowerback -2.47376 -2.01875 -0.327444
upperback -0.184478 -2.62003 -5.64739
thorax 0.89685 -1.29334 -5.77402
lowerneck -10.9915 -6.04557 2.29523
upperneck 2.55765 -8.66433 5.11839
head 2.90661 -4.07643 0.755318
lclavicle 7.10226e-14 1.86675e-14 -6.44799e-30
lhumerus -54.311 -43.2526 115.061
lradius 52.9358 -0 0
lwrist 18.9735 0 0
lhand 38.7582 30.2371 -0.0265875
lfingers 7.12502 -0 0
lthumb 61.3667 42.5612 -0.0104444
rclavicle 7.10226e-14 1.86675e-14 -6.44799e-30
rhumerus -51.0093 19.6123 -86.635
rradius 97.5776 -0 0
rwrist -3.47264 0 0
rhand 1.6777 -17.0109 -0.237371
rfingers 7.12502 -0 0
rthumb 26.7404 -44.0362 -0.628144
